<?xml version="1.0" encoding="UTF-8" standalone="no"?>
<svg width="873px" height="150px" viewBox="0 0 873 150" version="1.1" xmlns="http://www.w3.org/2000/svg" xmlns:xlink="http://www.w3.org/1999/xlink">
    <!-- Generator: Sketch 3.6.1 (26313) - http://www.bohemiancoding.com/sketch -->
    <title>betacode-svg</title>
    <desc>Created with Sketch.</desc>
    <defs></defs>
    <g stroke="none" stroke-width="1" fill="none" fill-rule="evenodd">
        <g>
            <path d="M76.0644959,57.5301608 C84.2907298,65.502545 88.4037851,76.1142757 88.4037851,89.3656711 C88.4037851,102.617067 84.3177894,113.390397 76.1456754,121.685986 C67.9735615,129.981575 58.4485914,134.129307 47.5704794,134.129307 C36.6923674,134.129307 26.9238612,129.389042 18.2646675,119.908369 L18.2646675,132.836495 L0.0804518705,132.836495 L0.0804518705,12.928126 L18.2646675,12.928126 L18.2646675,61.8934033 C25.4085023,51.0121762 34.7711149,45.5716442 46.3527864,45.5716442 C57.9344578,45.5716442 67.838262,49.5577765 76.0644959,57.5301608 Z M25.4084666,110.131474 C30.3875029,115.356617 36.4488475,117.96915 43.5926822,117.96915 C50.736517,117.96915 56.960219,115.383551 62.2639751,110.212274 C67.5677312,105.040998 70.2195694,98.3345997 70.2195694,90.0928782 C70.2195694,81.8511566 67.6218503,75.0100917 62.4263342,69.5694781 C57.230818,64.1288646 51.0071159,61.4085986 43.7550413,61.4085986 C36.5029666,61.4085986 30.3875029,64.1288646 25.4084666,69.5694781 C20.4294302,75.0100917 17.9399494,81.8242233 17.9399494,90.0120774 C17.9399494,98.1999315 20.4294302,104.90633 25.4084666,110.131474 Z" fill="#2274A5"></path>
            <path d="M189.878203,97.4457499 L122.174471,97.4457499 C122.607431,103.694375 125.475746,108.730907 130.779502,112.555497 C136.083258,116.380087 142.144603,118.292353 148.963718,118.292353 C159.78771,118.292353 168.01382,114.898754 173.642296,108.111454 L184.033276,119.423564 C174.724643,129.011972 162.601954,133.806104 147.664845,133.806104 C135.541974,133.806104 125.232276,129.793039 116.735443,121.766787 C108.238609,113.740535 103.990256,102.967205 103.990256,89.4464719 C103.990256,75.9257392 108.319788,65.1793419 116.978981,57.2069576 C125.638175,49.2345734 135.839634,45.2484411 147.583666,45.2484411 C159.327697,45.2484411 169.31268,48.7767068 177.538914,55.8333442 C185.765148,62.8899816 189.878203,72.6129125 189.878203,85.0024286 L189.878203,97.4457499 Z M122.174471,83.2248112 L171.693987,83.2248112 C171.693987,76.0065715 169.420983,70.4583062 164.874906,66.579849 C160.32883,62.7013918 154.727498,60.7621923 148.070743,60.7621923 C141.413988,60.7621923 135.433822,62.7821918 130.130066,66.8222514 C124.82631,70.8623109 122.174471,76.3297762 122.174471,83.2248112 Z" fill="#2274A5"></path>
            <path d="M233.715151,60.9237939 L233.715151,104.556219 C233.715151,108.650146 234.797534,111.909079 236.962333,114.333114 C239.127131,116.75715 242.157803,117.96915 246.054441,117.96915 C249.951078,117.96915 253.685299,116.083817 257.257216,112.313095 L264.725733,125.079619 C258.339578,130.78957 251.277029,133.644503 243.537875,133.644503 C235.798721,133.644503 229.196185,130.978103 223.730069,125.645225 C218.263953,120.312346 215.530936,113.121148 215.530936,104.071414 L215.530936,60.9237939 L204.652878,60.9237939 L204.652878,46.3796521 L215.530936,46.3796521 L215.530936,19.392189 L233.715151,19.392189 L233.715151,46.3796521 L256.445421,46.3796521 L256.445421,60.9237939 L233.715151,60.9237939 Z" fill="#E83F6F"></path>
            <path d="M352.56199,132.513292 L336.001365,132.513292 L336.001365,121.03958 C328.85753,129.550639 319.278441,133.806104 307.263809,133.806104 C298.279896,133.806104 290.838513,131.274372 284.939437,126.21083 C279.040362,121.147289 276.090868,114.387024 276.090868,105.929833 C276.090868,97.4726412 279.229779,91.1433094 285.507694,86.9416475 C291.78561,82.7399855 300.282316,80.639186 310.998068,80.639186 L334.540133,80.639186 L334.540133,77.4071545 C334.540133,65.9872528 328.154073,60.2773876 315.381763,60.2773876 C307.372009,60.2773876 299.03766,63.1861868 290.378466,69.0038726 L282.260513,57.6917624 C292.759785,49.3961733 304.665998,45.2484411 317.979508,45.2484411 C328.15406,45.2484411 336.46135,47.8071071 342.901625,52.9245159 C349.3419,58.0419247 352.56199,66.0949893 352.56199,77.0839514 L352.56199,132.513292 Z M334.377774,100.51618 L334.377774,93.2441089 L313.920531,93.2441089 C300.823501,93.2441089 294.275084,97.3379745 294.275084,105.525829 C294.275084,109.727491 295.898658,112.932556 299.145856,115.141122 C302.393054,117.349688 306.912002,118.453955 312.702838,118.453955 C318.493674,118.453955 323.553814,116.837955 327.883411,113.605907 C332.213008,110.37386 334.377774,106.010661 334.377774,100.51618 Z" fill="#E83F6F"></path>
            <path d="M417.505617,133.806104 C405.490986,133.806104 395.154228,129.739172 386.495035,121.605185 C377.835841,113.471199 373.506309,102.832535 373.506309,89.6888742 C373.506309,76.5452137 378.025258,65.8526831 387.063292,57.6109616 C396.101325,49.36924 407.114572,45.2484411 420.103362,45.2484411 C433.092152,45.2484411 444.07834,49.7193733 453.062253,58.6613718 L442.346554,71.7510994 C434.878,65.2870041 427.355438,62.0550049 419.778644,62.0550049 C412.201849,62.0550049 405.626373,64.5598043 400.052017,69.5694781 C394.477661,74.579152 391.690525,81.0431504 391.690525,88.9616672 C391.690525,96.8801839 394.450602,103.586582 399.970837,109.081063 C405.491073,114.575544 412.283027,117.322744 420.346901,117.322744 C428.410775,117.322744 436.014515,113.659811 443.15835,106.333836 L453.874048,117.96915 C443.374776,128.527172 431.252087,133.806104 417.505617,133.806104 L417.505617,133.806104 Z" fill="#2DE1BF"></path>
            <path d="M513.135108,133.806104 C500.146318,133.806104 489.322488,129.523705 480.663295,120.958779 C472.004101,112.393853 467.674569,101.916789 467.674569,89.5272727 C467.674569,77.1377566 472.004101,66.6606926 480.663295,58.0957663 C489.322488,49.53084 500.146318,45.2484411 513.135108,45.2484411 C526.123899,45.2484411 536.947728,49.53084 545.606922,58.0957663 C554.266116,66.6606926 558.595647,77.1377566 558.595647,89.5272727 C558.595647,101.916789 554.266116,112.393853 545.606922,120.958779 C536.947728,129.523705 526.123899,133.806104 513.135108,133.806104 Z M513.135108,117.645947 C521.036622,117.645947 527.55798,115.033414 532.699376,109.80827 C537.840772,104.583127 540.411432,97.8228617 540.411432,89.5272727 C540.411432,81.2316837 537.840772,74.4714187 532.699376,69.246275 C527.55798,64.0211313 521.036622,61.4085986 513.135108,61.4085986 C505.233594,61.4085986 498.712237,64.0211313 493.57084,69.246275 C488.429444,74.4714187 485.858785,81.2316837 485.858785,89.5272727 C485.858785,97.8228617 488.429444,104.583127 493.57084,109.80827 C498.712237,115.033414 505.233594,117.645947 513.135108,117.645947 Z" fill="#2DE1BF"></path>
            <path d="M590.255666,121.847588 C582.137672,113.659734 578.078736,102.886403 578.078736,89.5272727 C578.078736,76.1681423 582.24591,65.502545 590.580384,57.5301608 C598.914858,49.5577765 608.845721,45.5716442 620.373273,45.5716442 C631.900824,45.5716442 641.182258,50.419643 648.217853,60.115786 L648.217853,12.928126 L666.402069,12.928126 L666.402069,132.836495 L648.217853,132.836495 L648.217853,119.908369 C641.506978,129.389042 631.711412,134.129307 618.830862,134.129307 C607.89863,134.129307 598.37366,130.035442 590.255666,121.847588 Z M604.218546,110.373876 C609.522302,115.545152 615.746004,118.130751 622.889838,118.130751 C630.033673,118.130751 636.095018,115.518219 641.074054,110.293075 C646.05309,105.067931 648.542571,98.3615331 648.542571,90.173679 C648.542571,81.9858249 646.05309,75.14476 641.074054,69.6502789 C636.095018,64.1557979 629.979554,61.4085986 622.727479,61.4085986 C615.475405,61.4085986 609.251703,64.1557979 604.056187,69.6502789 C598.86067,75.14476 596.262951,82.0127582 596.262951,90.2544798 C596.262951,98.4962013 598.91479,105.2026 604.218546,110.373876 Z" fill="#2DE1BF"></path>
            <path d="M774.370849,97.4457499 L706.667118,97.4457499 C707.100078,103.694375 709.968392,108.730907 715.272148,112.555497 C720.575905,116.380087 726.637249,118.292353 733.456364,118.292353 C744.280356,118.292353 752.506467,114.898754 758.134943,108.111454 L768.525923,119.423564 C759.21729,129.011972 747.094601,133.806104 732.157492,133.806104 C720.034621,133.806104 709.724923,129.793039 701.228089,121.766787 C692.731255,113.740535 688.482902,102.967205 688.482902,89.4464719 C688.482902,75.9257392 692.812434,65.1793419 701.471628,57.2069576 C710.130821,49.2345734 720.332281,45.2484411 732.076312,45.2484411 C743.820343,45.2484411 753.805326,48.7767068 762.03156,55.8333442 C770.257794,62.8899816 774.370849,72.6129125 774.370849,85.0024286 L774.370849,97.4457499 Z M706.667118,83.2248112 L756.186634,83.2248112 C756.186634,76.0065715 753.913629,70.4583062 749.367553,66.579849 C744.821476,62.7013918 739.220144,60.7621923 732.563389,60.7621923 C725.906634,60.7621923 719.926468,62.7821918 714.622712,66.8222514 C709.318956,70.8623109 706.667118,76.3297762 706.667118,83.2248112 Z" fill="#2DE1BF"></path>
            <path d="M856.19982,0 L872.435727,0 L802.13425,149.966262 L785.898343,149.966262 L856.19982,0 Z" fill="#FFBF00"></path>
        </g>
    </g>
</svg>